G04 #@! TF.GenerationSoftware,KiCad,Pcbnew,7.0.2-6a45011f42~172~ubuntu20.04.1*
G04 #@! TF.CreationDate,2023-05-13T15:02:50+09:00*
G04 #@! TF.ProjectId,Wisun_proto,57697375-6e5f-4707-926f-746f2e6b6963,0.3*
G04 #@! TF.SameCoordinates,PX1b67618PY41e13c0*
G04 #@! TF.FileFunction,Copper,L1,Top*
G04 #@! TF.FilePolarity,Positive*
%FSLAX46Y46*%
G04 Gerber Fmt 4.6, Leading zero omitted, Abs format (unit mm)*
G04 Created by KiCad (PCBNEW 7.0.2-6a45011f42~172~ubuntu20.04.1) date 2023-05-13 15:02:50*
%MOMM*%
%LPD*%
G01*
G04 APERTURE LIST*
G04 Aperture macros list*
%AMFreePoly0*
4,1,19,0.500000,-0.750000,0.000000,-0.750000,0.000000,-0.744911,-0.071157,-0.744911,-0.207708,-0.704816,-0.327430,-0.627875,-0.420627,-0.520320,-0.479746,-0.390866,-0.500000,-0.250000,-0.500000,0.250000,-0.479746,0.390866,-0.420627,0.520320,-0.327430,0.627875,-0.207708,0.704816,-0.071157,0.744911,0.000000,0.744911,0.000000,0.750000,0.500000,0.750000,0.500000,-0.750000,0.500000,-0.750000,
$1*%
%AMFreePoly1*
4,1,19,0.000000,0.744911,0.071157,0.744911,0.207708,0.704816,0.327430,0.627875,0.420627,0.520320,0.479746,0.390866,0.500000,0.250000,0.500000,-0.250000,0.479746,-0.390866,0.420627,-0.520320,0.327430,-0.627875,0.207708,-0.704816,0.071157,-0.744911,0.000000,-0.744911,0.000000,-0.750000,-0.500000,-0.750000,-0.500000,0.750000,0.000000,0.750000,0.000000,0.744911,0.000000,0.744911,
$1*%
G04 Aperture macros list end*
G04 #@! TA.AperFunction,SMDPad,CuDef*
%ADD10R,1.600000X0.300000*%
G04 #@! TD*
G04 #@! TA.AperFunction,SMDPad,CuDef*
%ADD11FreePoly0,0.000000*%
G04 #@! TD*
G04 #@! TA.AperFunction,SMDPad,CuDef*
%ADD12FreePoly1,0.000000*%
G04 #@! TD*
G04 #@! TA.AperFunction,ComponentPad*
%ADD13R,1.700000X1.700000*%
G04 #@! TD*
G04 #@! TA.AperFunction,ComponentPad*
%ADD14O,1.700000X1.700000*%
G04 #@! TD*
G04 #@! TA.AperFunction,ViaPad*
%ADD15C,0.605000*%
G04 #@! TD*
G04 #@! TA.AperFunction,Conductor*
%ADD16C,0.200000*%
G04 #@! TD*
G04 #@! TA.AperFunction,Conductor*
%ADD17C,0.152400*%
G04 #@! TD*
G04 APERTURE END LIST*
D10*
X15065000Y10830000D03*
X11465000Y10830000D03*
X15065000Y11330000D03*
X11465000Y11330000D03*
X15065000Y11830000D03*
X11465000Y11830000D03*
X15065000Y12330000D03*
X11465000Y12330000D03*
X15065000Y12830000D03*
X11465000Y12830000D03*
X15065000Y13330000D03*
X11465000Y13330000D03*
X15065000Y13830000D03*
X11465000Y13830000D03*
X15065000Y14330000D03*
X11465000Y14330000D03*
X15065000Y14830000D03*
X11465000Y14830000D03*
X15065000Y15330000D03*
X11465000Y15330000D03*
D11*
X8170000Y22860000D03*
D12*
X9470000Y22860000D03*
D13*
X6985000Y6650000D03*
D14*
X6985000Y9190000D03*
X6985000Y11730000D03*
X6985000Y14270000D03*
X6985000Y16810000D03*
X6985000Y19350000D03*
D15*
X13335000Y8255000D03*
D16*
X13370000Y10830000D02*
X13335000Y10795000D01*
X13335000Y11330000D02*
X13335000Y10795000D01*
X15065000Y10830000D02*
X13370000Y10830000D01*
X15065000Y11330000D02*
X13335000Y11330000D01*
X13335000Y10795000D02*
X13335000Y8255000D01*
X10195000Y10830000D02*
X11465000Y10830000D01*
X10160000Y10795000D02*
X10195000Y10830000D01*
X8555000Y6650000D02*
X10160000Y8255000D01*
X10160000Y11330000D02*
X11465000Y11330000D01*
X6985000Y6650000D02*
X8555000Y6650000D01*
X10160000Y8255000D02*
X10160000Y10795000D01*
X10160000Y10795000D02*
X10160000Y11330000D01*
D17*
X6220000Y12830000D02*
X11465000Y12830000D01*
X5715000Y15540000D02*
X5715000Y13335000D01*
X6985000Y16810000D02*
X5715000Y15540000D01*
X5715000Y13335000D02*
X6220000Y12830000D01*
X14112600Y13330000D02*
X15065000Y13330000D01*
X13335000Y14867200D02*
X13335000Y14107600D01*
X6985000Y14270000D02*
X8423600Y15708600D01*
X13335000Y14107600D02*
X14112600Y13330000D01*
X12493600Y15708600D02*
X13335000Y14867200D01*
X8423600Y15708600D02*
X12493600Y15708600D01*
X6985000Y21675000D02*
X6985000Y19350000D01*
X8170000Y22860000D02*
X6985000Y21675000D01*
X16093600Y12427200D02*
X15996400Y12330000D01*
X9470000Y22860000D02*
X16093600Y16236400D01*
X15996400Y12330000D02*
X15065000Y12330000D01*
X16093600Y16236400D02*
X16093600Y12427200D01*
G04 #@! TA.AperFunction,Conductor*
G36*
X47412121Y25479998D02*
G01*
X47458614Y25426342D01*
X47470000Y25374000D01*
X47470000Y626000D01*
X47449998Y557879D01*
X47396342Y511386D01*
X47344000Y500000D01*
X626000Y500000D01*
X557879Y520002D01*
X511386Y573658D01*
X500000Y626000D01*
X500000Y2559654D01*
X1095701Y2559654D01*
X1105819Y2321471D01*
X1156044Y2088422D01*
X1244937Y1867208D01*
X1369932Y1664203D01*
X1527434Y1485247D01*
X1712917Y1335479D01*
X1712918Y1335479D01*
X1712920Y1335477D01*
X1921046Y1219210D01*
X2145829Y1139789D01*
X2380800Y1099500D01*
X2380802Y1099500D01*
X2556832Y1099500D01*
X2559497Y1099500D01*
X2721623Y1113300D01*
X2737542Y1114654D01*
X2844377Y1142472D01*
X2968249Y1174725D01*
X3185486Y1272923D01*
X3383003Y1406421D01*
X3555118Y1571379D01*
X3696879Y1763053D01*
X3804207Y1975926D01*
X3874016Y2203877D01*
X3904298Y2440346D01*
X3899230Y2559654D01*
X44095701Y2559654D01*
X44105819Y2321471D01*
X44156044Y2088422D01*
X44244937Y1867208D01*
X44369932Y1664203D01*
X44527434Y1485247D01*
X44712917Y1335479D01*
X44712918Y1335479D01*
X44712920Y1335477D01*
X44921046Y1219210D01*
X45145829Y1139789D01*
X45380800Y1099500D01*
X45380802Y1099500D01*
X45556832Y1099500D01*
X45559497Y1099500D01*
X45721623Y1113300D01*
X45737542Y1114654D01*
X45844377Y1142472D01*
X45968249Y1174725D01*
X46185486Y1272923D01*
X46383003Y1406421D01*
X46555118Y1571379D01*
X46696879Y1763053D01*
X46804207Y1975926D01*
X46874016Y2203877D01*
X46904298Y2440346D01*
X46894180Y2678532D01*
X46868837Y2796123D01*
X46843955Y2911579D01*
X46798750Y3024074D01*
X46755064Y3132790D01*
X46630069Y3335795D01*
X46630068Y3335796D01*
X46630067Y3335798D01*
X46472565Y3514754D01*
X46287082Y3664522D01*
X46078954Y3780790D01*
X45953049Y3825275D01*
X45854171Y3860211D01*
X45619200Y3900500D01*
X45440503Y3900500D01*
X45437850Y3900275D01*
X45437845Y3900274D01*
X45262457Y3885347D01*
X45031755Y3825277D01*
X44814511Y3727076D01*
X44616997Y3593580D01*
X44444882Y3428622D01*
X44303121Y3236947D01*
X44195791Y3024071D01*
X44125983Y2796123D01*
X44095701Y2559654D01*
X3899230Y2559654D01*
X3894180Y2678532D01*
X3868837Y2796123D01*
X3843955Y2911579D01*
X3798750Y3024074D01*
X3755064Y3132790D01*
X3630069Y3335795D01*
X3630068Y3335796D01*
X3630067Y3335798D01*
X3472565Y3514754D01*
X3287082Y3664522D01*
X3078954Y3780790D01*
X2953049Y3825275D01*
X2854171Y3860211D01*
X2619200Y3900500D01*
X2440503Y3900500D01*
X2437850Y3900275D01*
X2437845Y3900274D01*
X2262457Y3885347D01*
X2031755Y3825277D01*
X1814511Y3727076D01*
X1616997Y3593580D01*
X1444882Y3428622D01*
X1303121Y3236947D01*
X1195791Y3024071D01*
X1125983Y2796123D01*
X1095701Y2559654D01*
X500000Y2559654D01*
X500000Y13318865D01*
X5283782Y13318865D01*
X5293815Y13265832D01*
X5294603Y13261191D01*
X5303628Y13201319D01*
X5304627Y13198282D01*
X5332917Y13144753D01*
X5335038Y13140551D01*
X5361315Y13085986D01*
X5363140Y13083415D01*
X5367799Y13078756D01*
X5367800Y13078755D01*
X5405980Y13040575D01*
X5409223Y13037208D01*
X5450431Y12992797D01*
X5464731Y12981824D01*
X5896321Y12550234D01*
X5905737Y12539699D01*
X5938333Y12498825D01*
X5935751Y12496767D01*
X5961067Y12465896D01*
X5969260Y12395374D01*
X5957866Y12360521D01*
X5860769Y12165526D01*
X5802744Y11961585D01*
X5799885Y11951536D01*
X5779357Y11730000D01*
X5799885Y11508464D01*
X5799885Y11508461D01*
X5799886Y11508460D01*
X5860770Y11294473D01*
X5934333Y11146741D01*
X5959942Y11095311D01*
X6094019Y10917764D01*
X6258438Y10767876D01*
X6258440Y10767875D01*
X6258441Y10767874D01*
X6447594Y10650755D01*
X6447598Y10650754D01*
X6447599Y10650753D01*
X6636709Y10577492D01*
X6693003Y10534232D01*
X6716974Y10467405D01*
X6701010Y10398226D01*
X6650179Y10348660D01*
X6636713Y10342511D01*
X6603130Y10329500D01*
X6447594Y10269246D01*
X6258441Y10152127D01*
X6094018Y10002235D01*
X5959942Y9824690D01*
X5860770Y9625528D01*
X5799886Y9411541D01*
X5799885Y9411536D01*
X5779357Y9190000D01*
X5799885Y8968464D01*
X5799885Y8968461D01*
X5799886Y8968460D01*
X5860770Y8754473D01*
X5879491Y8716877D01*
X5959942Y8555311D01*
X6094019Y8377764D01*
X6258438Y8227876D01*
X6259273Y8227115D01*
X6296139Y8166441D01*
X6294350Y8095466D01*
X6254474Y8036727D01*
X6189170Y8008870D01*
X6174387Y8008000D01*
X6089777Y8008000D01*
X6083063Y8007641D01*
X6025906Y8001495D01*
X5889037Y7950446D01*
X5772095Y7862905D01*
X5684554Y7745963D01*
X5633505Y7609094D01*
X5627359Y7551937D01*
X5627000Y7545223D01*
X5627000Y6904000D01*
X6553884Y6904000D01*
X6525507Y6859844D01*
X6485000Y6721889D01*
X6485000Y6578111D01*
X6525507Y6440156D01*
X6553884Y6396000D01*
X5627000Y6396000D01*
X5627000Y5754778D01*
X5627359Y5748064D01*
X5633505Y5690907D01*
X5684554Y5554038D01*
X5772095Y5437096D01*
X5889037Y5349555D01*
X6025906Y5298506D01*
X6083063Y5292360D01*
X6089777Y5292000D01*
X6731000Y5292000D01*
X6731000Y6216326D01*
X6842685Y6165320D01*
X6949237Y6150000D01*
X7020763Y6150000D01*
X7127315Y6165320D01*
X7239000Y6216326D01*
X7239000Y5292000D01*
X7880223Y5292000D01*
X7886936Y5292360D01*
X7944093Y5298506D01*
X8080962Y5349555D01*
X8197904Y5437096D01*
X8285445Y5554038D01*
X8336494Y5690907D01*
X8342640Y5748064D01*
X8343000Y5754778D01*
X8343000Y6396000D01*
X7416116Y6396000D01*
X7444493Y6440156D01*
X7485000Y6578111D01*
X7485000Y6721889D01*
X7444493Y6859844D01*
X7416116Y6904000D01*
X8343000Y6904000D01*
X8343000Y7545223D01*
X8342640Y7551937D01*
X8336494Y7609094D01*
X8285445Y7745963D01*
X8197904Y7862905D01*
X8080962Y7950446D01*
X7944093Y8001495D01*
X7886936Y8007641D01*
X7880223Y8008000D01*
X7795613Y8008000D01*
X7727492Y8028002D01*
X7680999Y8081658D01*
X7670895Y8151932D01*
X7700389Y8216512D01*
X7710727Y8227115D01*
X7711562Y8227876D01*
X7875981Y8377764D01*
X8010058Y8555311D01*
X8109229Y8754472D01*
X8170115Y8968464D01*
X8190643Y9190000D01*
X8170115Y9411536D01*
X8109229Y9625528D01*
X8010058Y9824689D01*
X7875981Y10002236D01*
X7711562Y10152124D01*
X7711559Y10152126D01*
X7711558Y10152127D01*
X7522405Y10269246D01*
X7398891Y10317095D01*
X7333288Y10342510D01*
X7276996Y10385768D01*
X7253025Y10452595D01*
X7268989Y10521774D01*
X7319819Y10571339D01*
X7333279Y10577487D01*
X7522401Y10650753D01*
X7522402Y10650755D01*
X7522405Y10650755D01*
X7569636Y10680000D01*
X10157000Y10680000D01*
X10157000Y10634778D01*
X10157359Y10628064D01*
X10163505Y10570907D01*
X10214554Y10434038D01*
X10302095Y10317096D01*
X10419037Y10229555D01*
X10555906Y10178506D01*
X10613063Y10172360D01*
X10619777Y10172000D01*
X11315000Y10172000D01*
X11315000Y10680000D01*
X10157000Y10680000D01*
X7569636Y10680000D01*
X7616981Y10709315D01*
X7711562Y10767876D01*
X7875981Y10917764D01*
X8010058Y11095311D01*
X8109229Y11294472D01*
X8170115Y11508464D01*
X8190643Y11730000D01*
X8170115Y11951536D01*
X8133564Y12080000D01*
X8109230Y12165526D01*
X8081539Y12221137D01*
X8069080Y12291032D01*
X8096387Y12356567D01*
X8154790Y12396935D01*
X8194330Y12403300D01*
X10188500Y12403300D01*
X10256621Y12383298D01*
X10303114Y12329642D01*
X10314500Y12277300D01*
X10314500Y12146742D01*
X10321577Y12098165D01*
X10321577Y12061835D01*
X10314500Y12013259D01*
X10314500Y11901411D01*
X10294498Y11833290D01*
X10289368Y11825902D01*
X10214554Y11725963D01*
X10163505Y11589094D01*
X10157359Y11531937D01*
X10157000Y11525223D01*
X10157000Y11480000D01*
X10317128Y11480000D01*
X10385249Y11459998D01*
X10406223Y11443095D01*
X10454223Y11395095D01*
X10488249Y11332783D01*
X10483184Y11261968D01*
X10440637Y11205132D01*
X10374117Y11180321D01*
X10365128Y11180000D01*
X10157000Y11180000D01*
X10157000Y11134779D01*
X10157360Y11128062D01*
X10161079Y11093470D01*
X10161079Y11066533D01*
X10157360Y11031941D01*
X10157000Y11025222D01*
X10157000Y10980000D01*
X11489000Y10980000D01*
X11557121Y10959998D01*
X11603614Y10906342D01*
X11615000Y10854000D01*
X11615000Y10172000D01*
X12310223Y10172000D01*
X12316936Y10172360D01*
X12374093Y10178506D01*
X12510962Y10229555D01*
X12627903Y10317095D01*
X12657631Y10356807D01*
X12714466Y10399354D01*
X12785282Y10404420D01*
X12847595Y10370395D01*
X12881620Y10308083D01*
X12884500Y10281299D01*
X12884500Y8784998D01*
X12864498Y8716877D01*
X12843208Y8692033D01*
X12752550Y8560694D01*
X12696317Y8412420D01*
X12677203Y8255001D01*
X12696317Y8097581D01*
X12752549Y7949309D01*
X12787008Y7899387D01*
X12842633Y7818801D01*
X12961329Y7713645D01*
X13101742Y7639950D01*
X13255711Y7602000D01*
X13255713Y7602000D01*
X13414287Y7602000D01*
X13414289Y7602000D01*
X13568258Y7639950D01*
X13708671Y7713645D01*
X13827367Y7818801D01*
X13917449Y7949307D01*
X13973682Y8097579D01*
X13992796Y8255000D01*
X13973682Y8412421D01*
X13945565Y8486557D01*
X13917449Y8560694D01*
X13818677Y8703789D01*
X13819409Y8704295D01*
X13790221Y8750832D01*
X13785500Y8784998D01*
X13785500Y10253500D01*
X13805502Y10321621D01*
X13859158Y10368114D01*
X13911500Y10379500D01*
X14052486Y10379500D01*
X14107825Y10366697D01*
X14163607Y10339427D01*
X14231740Y10329500D01*
X14231743Y10329500D01*
X15898257Y10329500D01*
X15898260Y10329500D01*
X15966393Y10339427D01*
X16071483Y10390802D01*
X16154198Y10473517D01*
X16205573Y10578607D01*
X16215500Y10646740D01*
X16215500Y11013260D01*
X16208422Y11061835D01*
X16208422Y11098166D01*
X16215500Y11146740D01*
X16215500Y11513260D01*
X16208422Y11561835D01*
X16208422Y11598166D01*
X16215500Y11646740D01*
X16215500Y11893464D01*
X16235502Y11961585D01*
X16252402Y11982557D01*
X16252645Y11982800D01*
X16290837Y12020994D01*
X16294175Y12024209D01*
X16333776Y12060952D01*
X16333777Y12060955D01*
X16338604Y12065433D01*
X16349575Y12079732D01*
X16373377Y12103534D01*
X16383892Y12112932D01*
X16409927Y12133692D01*
X16440344Y12178308D01*
X16443066Y12182143D01*
X16475114Y12225565D01*
X16475115Y12225569D01*
X16479034Y12230878D01*
X16480438Y12233660D01*
X16482383Y12239966D01*
X16482386Y12239970D01*
X16498297Y12291558D01*
X16499764Y12296012D01*
X16519775Y12353198D01*
X16520300Y12356286D01*
X16520300Y12416840D01*
X16520388Y12421551D01*
X16522653Y12482093D01*
X16520300Y12499967D01*
X16520300Y16205360D01*
X16521092Y16219467D01*
X16522117Y16228562D01*
X16524818Y16252535D01*
X16514779Y16305592D01*
X16513995Y16310206D01*
X16504968Y16370100D01*
X16503979Y16373106D01*
X16475682Y16426646D01*
X16473573Y16430821D01*
X16450139Y16479484D01*
X16450138Y16479485D01*
X16447280Y16485421D01*
X16445462Y16487983D01*
X16402644Y16530801D01*
X16399375Y16534194D01*
X16358172Y16578600D01*
X16343869Y16589576D01*
X14293791Y18639654D01*
X38360701Y18639654D01*
X38370819Y18401471D01*
X38421044Y18168422D01*
X38509937Y17947208D01*
X38634932Y17744203D01*
X38792434Y17565247D01*
X38977917Y17415479D01*
X38977918Y17415479D01*
X38977920Y17415477D01*
X39186046Y17299210D01*
X39410829Y17219789D01*
X39645800Y17179500D01*
X39645802Y17179500D01*
X39821832Y17179500D01*
X39824497Y17179500D01*
X39986623Y17193300D01*
X40002542Y17194654D01*
X40109377Y17222472D01*
X40233249Y17254725D01*
X40450486Y17352923D01*
X40648003Y17486421D01*
X40820118Y17651379D01*
X40961879Y17843053D01*
X41069207Y18055926D01*
X41139016Y18283877D01*
X41169298Y18520346D01*
X41159180Y18758532D01*
X41133837Y18876123D01*
X41108955Y18991579D01*
X41053949Y19128464D01*
X41020064Y19212790D01*
X40895069Y19415795D01*
X40895068Y19415796D01*
X40895067Y19415798D01*
X40737565Y19594754D01*
X40552082Y19744522D01*
X40343954Y19860790D01*
X40218049Y19905275D01*
X40119171Y19940211D01*
X39884200Y19980500D01*
X39705503Y19980500D01*
X39702850Y19980275D01*
X39702845Y19980274D01*
X39527457Y19965347D01*
X39296755Y19905277D01*
X39079511Y19807076D01*
X38881997Y19673580D01*
X38709882Y19508622D01*
X38568121Y19316947D01*
X38460791Y19104071D01*
X38390983Y18876123D01*
X38360701Y18639654D01*
X14293791Y18639654D01*
X10363776Y22569670D01*
X10329750Y22631982D01*
X10326871Y22658765D01*
X10326871Y22660572D01*
X10326628Y22662262D01*
X10325346Y22680190D01*
X10325346Y23039814D01*
X10326629Y23057750D01*
X10326871Y23059433D01*
X10326871Y23160575D01*
X10306409Y23302885D01*
X10300952Y23321471D01*
X10277914Y23399932D01*
X10218186Y23530717D01*
X10199589Y23559654D01*
X44095701Y23559654D01*
X44105819Y23321471D01*
X44156044Y23088422D01*
X44244937Y22867208D01*
X44369932Y22664203D01*
X44527434Y22485247D01*
X44712917Y22335479D01*
X44712918Y22335479D01*
X44712920Y22335477D01*
X44921046Y22219210D01*
X45145829Y22139789D01*
X45380800Y22099500D01*
X45380802Y22099500D01*
X45556832Y22099500D01*
X45559497Y22099500D01*
X45721623Y22113300D01*
X45737542Y22114654D01*
X45844377Y22142472D01*
X45968249Y22174725D01*
X46185486Y22272923D01*
X46383003Y22406421D01*
X46555118Y22571379D01*
X46696879Y22763053D01*
X46804207Y22975926D01*
X46874016Y23203877D01*
X46904298Y23440346D01*
X46894180Y23678532D01*
X46844199Y23910445D01*
X46843955Y23911579D01*
X46798750Y24024074D01*
X46755064Y24132790D01*
X46630069Y24335795D01*
X46630068Y24335796D01*
X46630067Y24335798D01*
X46472565Y24514754D01*
X46287082Y24664522D01*
X46078954Y24780790D01*
X45953049Y24825275D01*
X45854171Y24860211D01*
X45619200Y24900500D01*
X45440503Y24900500D01*
X45437850Y24900275D01*
X45437845Y24900274D01*
X45262457Y24885347D01*
X45031755Y24825277D01*
X44814511Y24727076D01*
X44616997Y24593580D01*
X44444882Y24428622D01*
X44303121Y24236947D01*
X44195791Y24024071D01*
X44125983Y23796123D01*
X44095701Y23559654D01*
X10199589Y23559654D01*
X10163506Y23615800D01*
X10069352Y23724461D01*
X9992912Y23790698D01*
X9992913Y23790698D01*
X9992910Y23790700D01*
X9871959Y23868430D01*
X9779957Y23910445D01*
X9641997Y23950954D01*
X9541892Y23965346D01*
X9541889Y23965346D01*
X8970000Y23965346D01*
X8966124Y23964863D01*
X8966125Y23964863D01*
X8882765Y23954473D01*
X8876435Y23951696D01*
X8806017Y23942653D01*
X8805087Y23942804D01*
X8731123Y23955147D01*
X8670000Y23965346D01*
X8098111Y23965346D01*
X8098108Y23965346D01*
X7998002Y23950954D01*
X7860042Y23910445D01*
X7768040Y23868430D01*
X7647089Y23790700D01*
X7570648Y23724462D01*
X7476494Y23615801D01*
X7421814Y23530718D01*
X7362085Y23399930D01*
X7333590Y23302885D01*
X7313129Y23160575D01*
X7313129Y23059433D01*
X7313371Y23057750D01*
X7314654Y23039814D01*
X7314654Y22680190D01*
X7313372Y22662262D01*
X7313129Y22660572D01*
X7313129Y22658766D01*
X7312620Y22657035D01*
X7311847Y22651653D01*
X7311073Y22651765D01*
X7293127Y22590645D01*
X7276224Y22569670D01*
X6705226Y21998673D01*
X6694693Y21989260D01*
X6668672Y21968509D01*
X6638260Y21923903D01*
X6635536Y21920064D01*
X6599584Y21871350D01*
X6598151Y21868511D01*
X6580300Y21810645D01*
X6578830Y21806177D01*
X6558833Y21749026D01*
X6558300Y21745883D01*
X6558300Y21685353D01*
X6558212Y21680642D01*
X6555946Y21620104D01*
X6558300Y21602234D01*
X6558300Y20558446D01*
X6538298Y20490325D01*
X6484642Y20443832D01*
X6477819Y20440955D01*
X6447594Y20429246D01*
X6258441Y20312127D01*
X6094018Y20162235D01*
X5959942Y19984690D01*
X5860770Y19785528D01*
X5806491Y19594755D01*
X5799885Y19571536D01*
X5779357Y19350000D01*
X5799885Y19128464D01*
X5799885Y19128461D01*
X5799886Y19128460D01*
X5860770Y18914473D01*
X5938420Y18758532D01*
X5959942Y18715311D01*
X6094019Y18537764D01*
X6258438Y18387876D01*
X6258440Y18387875D01*
X6258441Y18387874D01*
X6447594Y18270755D01*
X6447598Y18270754D01*
X6447599Y18270753D01*
X6636709Y18197492D01*
X6693003Y18154232D01*
X6716974Y18087405D01*
X6701010Y18018226D01*
X6650179Y17968660D01*
X6636713Y17962511D01*
X6582003Y17941316D01*
X6447594Y17889246D01*
X6258441Y17772127D01*
X6094018Y17622235D01*
X5959942Y17444690D01*
X5860770Y17245528D01*
X5841984Y17179500D01*
X5799885Y17031536D01*
X5779357Y16810000D01*
X5799885Y16588464D01*
X5799885Y16588461D01*
X5799886Y16588460D01*
X5859391Y16379319D01*
X5858795Y16308325D01*
X5827296Y16255743D01*
X5435231Y15863678D01*
X5424698Y15854264D01*
X5398672Y15833509D01*
X5368260Y15788903D01*
X5365536Y15785064D01*
X5329584Y15736350D01*
X5328151Y15733511D01*
X5310300Y15675645D01*
X5308830Y15671177D01*
X5288833Y15614026D01*
X5288300Y15610883D01*
X5288300Y15550353D01*
X5288212Y15545642D01*
X5285946Y15485104D01*
X5288300Y15467234D01*
X5288300Y13366042D01*
X5287508Y13351935D01*
X5283782Y13318865D01*
X500000Y13318865D01*
X500000Y23559654D01*
X1095701Y23559654D01*
X1105819Y23321471D01*
X1156044Y23088422D01*
X1244937Y22867208D01*
X1369932Y22664203D01*
X1527434Y22485247D01*
X1712917Y22335479D01*
X1712918Y22335479D01*
X1712920Y22335477D01*
X1921046Y22219210D01*
X2145829Y22139789D01*
X2380800Y22099500D01*
X2380802Y22099500D01*
X2556832Y22099500D01*
X2559497Y22099500D01*
X2721623Y22113300D01*
X2737542Y22114654D01*
X2844377Y22142472D01*
X2968249Y22174725D01*
X3185486Y22272923D01*
X3383003Y22406421D01*
X3555118Y22571379D01*
X3696879Y22763053D01*
X3804207Y22975926D01*
X3874016Y23203877D01*
X3904298Y23440346D01*
X3894180Y23678532D01*
X3844199Y23910445D01*
X3843955Y23911579D01*
X3798750Y24024074D01*
X3755064Y24132790D01*
X3630069Y24335795D01*
X3630068Y24335796D01*
X3630067Y24335798D01*
X3472565Y24514754D01*
X3287082Y24664522D01*
X3078954Y24780790D01*
X2953049Y24825275D01*
X2854171Y24860211D01*
X2619200Y24900500D01*
X2440503Y24900500D01*
X2437850Y24900275D01*
X2437845Y24900274D01*
X2262457Y24885347D01*
X2031755Y24825277D01*
X1814511Y24727076D01*
X1616997Y24593580D01*
X1444882Y24428622D01*
X1303121Y24236947D01*
X1195791Y24024071D01*
X1125983Y23796123D01*
X1095701Y23559654D01*
X500000Y23559654D01*
X500000Y25374000D01*
X520002Y25442121D01*
X573658Y25488614D01*
X626000Y25500000D01*
X47344000Y25500000D01*
X47412121Y25479998D01*
G37*
G04 #@! TD.AperFunction*
M02*
