G04 #@! TF.GenerationSoftware,KiCad,Pcbnew,7.0.2-6a45011f42~172~ubuntu20.04.1*
G04 #@! TF.CreationDate,2023-05-13T15:02:50+09:00*
G04 #@! TF.ProjectId,Wisun_proto,57697375-6e5f-4707-926f-746f2e6b6963,0.3*
G04 #@! TF.SameCoordinates,PX1b67618PY41e13c0*
G04 #@! TF.FileFunction,Copper,L2,Bot*
G04 #@! TF.FilePolarity,Positive*
%FSLAX46Y46*%
G04 Gerber Fmt 4.6, Leading zero omitted, Abs format (unit mm)*
G04 Created by KiCad (PCBNEW 7.0.2-6a45011f42~172~ubuntu20.04.1) date 2023-05-13 15:02:50*
%MOMM*%
%LPD*%
G01*
G04 APERTURE LIST*
G04 #@! TA.AperFunction,ComponentPad*
%ADD10R,1.700000X1.700000*%
G04 #@! TD*
G04 #@! TA.AperFunction,ComponentPad*
%ADD11O,1.700000X1.700000*%
G04 #@! TD*
G04 #@! TA.AperFunction,ViaPad*
%ADD12C,0.605000*%
G04 #@! TD*
G04 #@! TA.AperFunction,Conductor*
%ADD13C,0.200000*%
G04 #@! TD*
G04 APERTURE END LIST*
D10*
X6985000Y6650000D03*
D11*
X6985000Y9190000D03*
X6985000Y11730000D03*
X6985000Y14270000D03*
X6985000Y16810000D03*
X6985000Y19350000D03*
D12*
X13335000Y8255000D03*
D13*
X10460000Y8255000D02*
X6985000Y11730000D01*
X13335000Y8255000D02*
X10460000Y8255000D01*
G04 #@! TA.AperFunction,Conductor*
G36*
X47412121Y25479998D02*
G01*
X47458614Y25426342D01*
X47470000Y25374000D01*
X47470000Y626000D01*
X47449998Y557879D01*
X47396342Y511386D01*
X47344000Y500000D01*
X626000Y500000D01*
X557879Y520002D01*
X511386Y573658D01*
X500000Y626000D01*
X500000Y2559654D01*
X1095701Y2559654D01*
X1105819Y2321471D01*
X1156044Y2088422D01*
X1244937Y1867208D01*
X1369932Y1664203D01*
X1527434Y1485247D01*
X1712917Y1335479D01*
X1712918Y1335479D01*
X1712920Y1335477D01*
X1921046Y1219210D01*
X2145829Y1139789D01*
X2380800Y1099500D01*
X2380802Y1099500D01*
X2556832Y1099500D01*
X2559497Y1099500D01*
X2721623Y1113300D01*
X2737542Y1114654D01*
X2844377Y1142472D01*
X2968249Y1174725D01*
X3185486Y1272923D01*
X3383003Y1406421D01*
X3555118Y1571379D01*
X3696879Y1763053D01*
X3804207Y1975926D01*
X3874016Y2203877D01*
X3904298Y2440346D01*
X3899230Y2559654D01*
X44095701Y2559654D01*
X44105819Y2321471D01*
X44156044Y2088422D01*
X44244937Y1867208D01*
X44369932Y1664203D01*
X44527434Y1485247D01*
X44712917Y1335479D01*
X44712918Y1335479D01*
X44712920Y1335477D01*
X44921046Y1219210D01*
X45145829Y1139789D01*
X45380800Y1099500D01*
X45380802Y1099500D01*
X45556832Y1099500D01*
X45559497Y1099500D01*
X45721623Y1113300D01*
X45737542Y1114654D01*
X45844377Y1142472D01*
X45968249Y1174725D01*
X46185486Y1272923D01*
X46383003Y1406421D01*
X46555118Y1571379D01*
X46696879Y1763053D01*
X46804207Y1975926D01*
X46874016Y2203877D01*
X46904298Y2440346D01*
X46894180Y2678532D01*
X46868837Y2796123D01*
X46843955Y2911579D01*
X46798750Y3024074D01*
X46755064Y3132790D01*
X46630069Y3335795D01*
X46630068Y3335796D01*
X46630067Y3335798D01*
X46472565Y3514754D01*
X46287082Y3664522D01*
X46078954Y3780790D01*
X45953049Y3825275D01*
X45854171Y3860211D01*
X45619200Y3900500D01*
X45440503Y3900500D01*
X45437850Y3900275D01*
X45437845Y3900274D01*
X45262457Y3885347D01*
X45031755Y3825277D01*
X44814511Y3727076D01*
X44616997Y3593580D01*
X44444882Y3428622D01*
X44303121Y3236947D01*
X44195791Y3024071D01*
X44125983Y2796123D01*
X44095701Y2559654D01*
X3899230Y2559654D01*
X3894180Y2678532D01*
X3868837Y2796123D01*
X3843955Y2911579D01*
X3798750Y3024074D01*
X3755064Y3132790D01*
X3630069Y3335795D01*
X3630068Y3335796D01*
X3630067Y3335798D01*
X3472565Y3514754D01*
X3287082Y3664522D01*
X3078954Y3780790D01*
X2953049Y3825275D01*
X2854171Y3860211D01*
X2619200Y3900500D01*
X2440503Y3900500D01*
X2437850Y3900275D01*
X2437845Y3900274D01*
X2262457Y3885347D01*
X2031755Y3825277D01*
X1814511Y3727076D01*
X1616997Y3593580D01*
X1444882Y3428622D01*
X1303121Y3236947D01*
X1195791Y3024071D01*
X1125983Y2796123D01*
X1095701Y2559654D01*
X500000Y2559654D01*
X500000Y5754778D01*
X5627000Y5754778D01*
X5627359Y5748064D01*
X5633505Y5690907D01*
X5684554Y5554038D01*
X5772095Y5437096D01*
X5889037Y5349555D01*
X6025906Y5298506D01*
X6083063Y5292360D01*
X6089777Y5292000D01*
X6731000Y5292000D01*
X6731000Y6216326D01*
X6842685Y6165320D01*
X6949237Y6150000D01*
X7020763Y6150000D01*
X7127315Y6165320D01*
X7239000Y6216326D01*
X7239000Y5292000D01*
X7880223Y5292000D01*
X7886936Y5292360D01*
X7944093Y5298506D01*
X8080962Y5349555D01*
X8197904Y5437096D01*
X8285445Y5554038D01*
X8336494Y5690907D01*
X8342640Y5748064D01*
X8343000Y5754778D01*
X8343000Y6396000D01*
X7416116Y6396000D01*
X7444493Y6440156D01*
X7485000Y6578111D01*
X7485000Y6721889D01*
X7444493Y6859844D01*
X7416116Y6904000D01*
X8343000Y6904000D01*
X8343000Y7545223D01*
X8342640Y7551937D01*
X8336494Y7609094D01*
X8285445Y7745963D01*
X8197904Y7862905D01*
X8080962Y7950446D01*
X7944093Y8001495D01*
X7886936Y8007641D01*
X7880223Y8008000D01*
X7795613Y8008000D01*
X7727492Y8028002D01*
X7680999Y8081658D01*
X7670895Y8151932D01*
X7700389Y8216512D01*
X7710727Y8227115D01*
X7711562Y8227876D01*
X7875981Y8377764D01*
X8010058Y8555311D01*
X8109229Y8754472D01*
X8170115Y8968464D01*
X8190643Y9190000D01*
X8170115Y9411536D01*
X8109229Y9625528D01*
X8106034Y9636759D01*
X8109598Y9637774D01*
X8100739Y9687423D01*
X8128033Y9752963D01*
X8186428Y9793343D01*
X8257384Y9795741D01*
X8315086Y9762810D01*
X10118547Y7959350D01*
X10127962Y7948815D01*
X10150118Y7921032D01*
X10150121Y7921030D01*
X10197340Y7888837D01*
X10201144Y7886138D01*
X10247118Y7852207D01*
X10247120Y7852207D01*
X10252138Y7848503D01*
X10256369Y7846367D01*
X10262323Y7844531D01*
X10262327Y7844528D01*
X10316942Y7827683D01*
X10321405Y7826213D01*
X10381185Y7805295D01*
X10385864Y7804500D01*
X10392098Y7804500D01*
X10449215Y7804500D01*
X10453925Y7804413D01*
X10511010Y7802276D01*
X10511012Y7802277D01*
X10517236Y7802044D01*
X10535899Y7804500D01*
X12810990Y7804500D01*
X12879111Y7784498D01*
X12894543Y7772812D01*
X12931793Y7739812D01*
X12961329Y7713645D01*
X13101742Y7639950D01*
X13255711Y7602000D01*
X13255713Y7602000D01*
X13414287Y7602000D01*
X13414289Y7602000D01*
X13568258Y7639950D01*
X13708671Y7713645D01*
X13827367Y7818801D01*
X13917449Y7949307D01*
X13973682Y8097579D01*
X13992796Y8255000D01*
X13973682Y8412421D01*
X13952355Y8468654D01*
X13917450Y8560692D01*
X13900220Y8585654D01*
X13827367Y8691199D01*
X13708671Y8796355D01*
X13638464Y8833203D01*
X13568259Y8870050D01*
X13516934Y8882700D01*
X13414289Y8908000D01*
X13255711Y8908000D01*
X13178726Y8889025D01*
X13101740Y8870050D01*
X12961327Y8796354D01*
X12894543Y8737188D01*
X12830291Y8706987D01*
X12810990Y8705500D01*
X10698793Y8705500D01*
X10630672Y8725502D01*
X10609698Y8742405D01*
X8150158Y11201945D01*
X8116132Y11264257D01*
X8118063Y11325522D01*
X8170114Y11508460D01*
X8170115Y11508464D01*
X8190643Y11730000D01*
X8170115Y11951536D01*
X8109229Y12165528D01*
X8010058Y12364689D01*
X7875981Y12542236D01*
X7711562Y12692124D01*
X7711559Y12692126D01*
X7711558Y12692127D01*
X7522405Y12809246D01*
X7443566Y12839788D01*
X7333288Y12882510D01*
X7276996Y12925768D01*
X7253025Y12992595D01*
X7268989Y13061774D01*
X7319819Y13111339D01*
X7333279Y13117487D01*
X7522401Y13190753D01*
X7522402Y13190755D01*
X7522405Y13190755D01*
X7616981Y13249315D01*
X7711562Y13307876D01*
X7875981Y13457764D01*
X8010058Y13635311D01*
X8109229Y13834472D01*
X8170115Y14048464D01*
X8190643Y14270000D01*
X8170115Y14491536D01*
X8109229Y14705528D01*
X8010058Y14904689D01*
X7875981Y15082236D01*
X7711562Y15232124D01*
X7711559Y15232126D01*
X7711558Y15232127D01*
X7522405Y15349246D01*
X7443566Y15379788D01*
X7333288Y15422510D01*
X7276996Y15465768D01*
X7253025Y15532595D01*
X7268989Y15601774D01*
X7319819Y15651339D01*
X7333279Y15657487D01*
X7522401Y15730753D01*
X7522402Y15730755D01*
X7522405Y15730755D01*
X7616981Y15789315D01*
X7711562Y15847876D01*
X7875981Y15997764D01*
X8010058Y16175311D01*
X8109229Y16374472D01*
X8170115Y16588464D01*
X8190643Y16810000D01*
X8170115Y17031536D01*
X8109229Y17245528D01*
X8010058Y17444689D01*
X7875981Y17622236D01*
X7711562Y17772124D01*
X7711559Y17772126D01*
X7711558Y17772127D01*
X7522405Y17889246D01*
X7443566Y17919788D01*
X7333288Y17962510D01*
X7276996Y18005768D01*
X7253025Y18072595D01*
X7268989Y18141774D01*
X7319819Y18191339D01*
X7333279Y18197487D01*
X7522401Y18270753D01*
X7522402Y18270755D01*
X7522405Y18270755D01*
X7616981Y18329315D01*
X7711562Y18387876D01*
X7875981Y18537764D01*
X7952925Y18639654D01*
X38360701Y18639654D01*
X38370819Y18401471D01*
X38421044Y18168422D01*
X38509937Y17947208D01*
X38634932Y17744203D01*
X38792434Y17565247D01*
X38977917Y17415479D01*
X38977918Y17415479D01*
X38977920Y17415477D01*
X39186046Y17299210D01*
X39410829Y17219789D01*
X39645800Y17179500D01*
X39645802Y17179500D01*
X39821832Y17179500D01*
X39824497Y17179500D01*
X39986623Y17193300D01*
X40002542Y17194654D01*
X40109377Y17222472D01*
X40233249Y17254725D01*
X40450486Y17352923D01*
X40648003Y17486421D01*
X40820118Y17651379D01*
X40961879Y17843053D01*
X41069207Y18055926D01*
X41139016Y18283877D01*
X41169298Y18520346D01*
X41159180Y18758532D01*
X41133837Y18876123D01*
X41108955Y18991579D01*
X41053949Y19128464D01*
X41020064Y19212790D01*
X40895069Y19415795D01*
X40895068Y19415796D01*
X40895067Y19415798D01*
X40737565Y19594754D01*
X40552082Y19744522D01*
X40343954Y19860790D01*
X40218049Y19905275D01*
X40119171Y19940211D01*
X39884200Y19980500D01*
X39705503Y19980500D01*
X39702850Y19980275D01*
X39702845Y19980274D01*
X39527457Y19965347D01*
X39296755Y19905277D01*
X39079511Y19807076D01*
X38881997Y19673580D01*
X38709882Y19508622D01*
X38568121Y19316947D01*
X38460791Y19104071D01*
X38390983Y18876123D01*
X38360701Y18639654D01*
X7952925Y18639654D01*
X8010058Y18715311D01*
X8109229Y18914472D01*
X8170115Y19128464D01*
X8190643Y19350000D01*
X8170115Y19571536D01*
X8109229Y19785528D01*
X8010058Y19984689D01*
X7875981Y20162236D01*
X7711562Y20312124D01*
X7711559Y20312126D01*
X7711558Y20312127D01*
X7522405Y20429246D01*
X7314940Y20509618D01*
X7096243Y20550500D01*
X6873757Y20550500D01*
X6727958Y20523246D01*
X6655059Y20509618D01*
X6447594Y20429246D01*
X6258441Y20312127D01*
X6094018Y20162235D01*
X5959942Y19984690D01*
X5860770Y19785528D01*
X5806491Y19594755D01*
X5799885Y19571536D01*
X5779357Y19350000D01*
X5799885Y19128464D01*
X5799885Y19128461D01*
X5799886Y19128460D01*
X5860770Y18914473D01*
X5938420Y18758532D01*
X5959942Y18715311D01*
X6094019Y18537764D01*
X6258438Y18387876D01*
X6258440Y18387875D01*
X6258441Y18387874D01*
X6447594Y18270755D01*
X6447598Y18270754D01*
X6447599Y18270753D01*
X6636709Y18197492D01*
X6693003Y18154232D01*
X6716974Y18087405D01*
X6701010Y18018226D01*
X6650179Y17968660D01*
X6636713Y17962511D01*
X6582003Y17941316D01*
X6447594Y17889246D01*
X6258441Y17772127D01*
X6094018Y17622235D01*
X5959942Y17444690D01*
X5860770Y17245528D01*
X5841984Y17179500D01*
X5799885Y17031536D01*
X5779357Y16810000D01*
X5799885Y16588464D01*
X5799885Y16588461D01*
X5799886Y16588460D01*
X5860770Y16374473D01*
X5959941Y16175312D01*
X5959942Y16175311D01*
X6094019Y15997764D01*
X6258438Y15847876D01*
X6258440Y15847875D01*
X6258441Y15847874D01*
X6447594Y15730755D01*
X6447598Y15730754D01*
X6447599Y15730753D01*
X6636709Y15657492D01*
X6693003Y15614232D01*
X6716974Y15547405D01*
X6701010Y15478226D01*
X6650179Y15428660D01*
X6636713Y15422511D01*
X6582003Y15401316D01*
X6447594Y15349246D01*
X6258441Y15232127D01*
X6094018Y15082235D01*
X5959942Y14904690D01*
X5860770Y14705528D01*
X5799886Y14491541D01*
X5799885Y14491536D01*
X5779357Y14270000D01*
X5799885Y14048464D01*
X5799885Y14048461D01*
X5799886Y14048460D01*
X5860770Y13834473D01*
X5959941Y13635311D01*
X5959942Y13635311D01*
X6094019Y13457764D01*
X6258438Y13307876D01*
X6258440Y13307875D01*
X6258441Y13307874D01*
X6447594Y13190755D01*
X6447598Y13190754D01*
X6447599Y13190753D01*
X6636709Y13117492D01*
X6693003Y13074232D01*
X6716974Y13007405D01*
X6701010Y12938226D01*
X6650179Y12888660D01*
X6636713Y12882511D01*
X6582003Y12861316D01*
X6447594Y12809246D01*
X6258441Y12692127D01*
X6094018Y12542235D01*
X5959942Y12364690D01*
X5860770Y12165528D01*
X5799886Y11951541D01*
X5799885Y11951536D01*
X5779357Y11730000D01*
X5799885Y11508464D01*
X5799886Y11508462D01*
X5799886Y11508460D01*
X5860770Y11294473D01*
X5906844Y11201945D01*
X5959942Y11095311D01*
X6094019Y10917764D01*
X6258438Y10767876D01*
X6258440Y10767875D01*
X6258441Y10767874D01*
X6447594Y10650755D01*
X6447598Y10650754D01*
X6447599Y10650753D01*
X6636709Y10577492D01*
X6693003Y10534232D01*
X6716974Y10467405D01*
X6701010Y10398226D01*
X6650179Y10348660D01*
X6636713Y10342511D01*
X6582003Y10321316D01*
X6447594Y10269246D01*
X6258441Y10152127D01*
X6094018Y10002235D01*
X5959942Y9824690D01*
X5860770Y9625528D01*
X5799886Y9411541D01*
X5799885Y9411536D01*
X5779357Y9190000D01*
X5799885Y8968464D01*
X5799885Y8968461D01*
X5799886Y8968460D01*
X5860770Y8754473D01*
X5885156Y8705500D01*
X5959942Y8555311D01*
X6094019Y8377764D01*
X6258438Y8227876D01*
X6259273Y8227115D01*
X6296139Y8166441D01*
X6294350Y8095466D01*
X6254474Y8036727D01*
X6189170Y8008870D01*
X6174387Y8008000D01*
X6089777Y8008000D01*
X6083063Y8007641D01*
X6025906Y8001495D01*
X5889037Y7950446D01*
X5772095Y7862905D01*
X5684554Y7745963D01*
X5633505Y7609094D01*
X5627359Y7551937D01*
X5627000Y7545223D01*
X5627000Y6904000D01*
X6553884Y6904000D01*
X6525507Y6859844D01*
X6485000Y6721889D01*
X6485000Y6578111D01*
X6525507Y6440156D01*
X6553884Y6396000D01*
X5627000Y6396000D01*
X5627000Y5754778D01*
X500000Y5754778D01*
X500000Y23559654D01*
X1095701Y23559654D01*
X1105819Y23321471D01*
X1156044Y23088422D01*
X1244937Y22867208D01*
X1369932Y22664203D01*
X1527434Y22485247D01*
X1712917Y22335479D01*
X1712918Y22335479D01*
X1712920Y22335477D01*
X1921046Y22219210D01*
X2145829Y22139789D01*
X2380800Y22099500D01*
X2380802Y22099500D01*
X2556832Y22099500D01*
X2559497Y22099500D01*
X2721623Y22113300D01*
X2737542Y22114654D01*
X2844377Y22142472D01*
X2968249Y22174725D01*
X3185486Y22272923D01*
X3383003Y22406421D01*
X3555118Y22571379D01*
X3696879Y22763053D01*
X3804207Y22975926D01*
X3874016Y23203877D01*
X3904298Y23440346D01*
X3899230Y23559654D01*
X44095701Y23559654D01*
X44105819Y23321471D01*
X44156044Y23088422D01*
X44244937Y22867208D01*
X44369932Y22664203D01*
X44527434Y22485247D01*
X44712917Y22335479D01*
X44712918Y22335479D01*
X44712920Y22335477D01*
X44921046Y22219210D01*
X45145829Y22139789D01*
X45380800Y22099500D01*
X45380802Y22099500D01*
X45556832Y22099500D01*
X45559497Y22099500D01*
X45721623Y22113300D01*
X45737542Y22114654D01*
X45844377Y22142472D01*
X45968249Y22174725D01*
X46185486Y22272923D01*
X46383003Y22406421D01*
X46555118Y22571379D01*
X46696879Y22763053D01*
X46804207Y22975926D01*
X46874016Y23203877D01*
X46904298Y23440346D01*
X46894180Y23678532D01*
X46868837Y23796123D01*
X46843955Y23911579D01*
X46798750Y24024074D01*
X46755064Y24132790D01*
X46630069Y24335795D01*
X46630068Y24335796D01*
X46630067Y24335798D01*
X46472565Y24514754D01*
X46287082Y24664522D01*
X46078954Y24780790D01*
X45953049Y24825275D01*
X45854171Y24860211D01*
X45619200Y24900500D01*
X45440503Y24900500D01*
X45437850Y24900275D01*
X45437845Y24900274D01*
X45262457Y24885347D01*
X45031755Y24825277D01*
X44814511Y24727076D01*
X44616997Y24593580D01*
X44444882Y24428622D01*
X44303121Y24236947D01*
X44195791Y24024071D01*
X44125983Y23796123D01*
X44095701Y23559654D01*
X3899230Y23559654D01*
X3894180Y23678532D01*
X3868837Y23796123D01*
X3843955Y23911579D01*
X3798750Y24024074D01*
X3755064Y24132790D01*
X3630069Y24335795D01*
X3630068Y24335796D01*
X3630067Y24335798D01*
X3472565Y24514754D01*
X3287082Y24664522D01*
X3078954Y24780790D01*
X2953049Y24825275D01*
X2854171Y24860211D01*
X2619200Y24900500D01*
X2440503Y24900500D01*
X2437850Y24900275D01*
X2437845Y24900274D01*
X2262457Y24885347D01*
X2031755Y24825277D01*
X1814511Y24727076D01*
X1616997Y24593580D01*
X1444882Y24428622D01*
X1303121Y24236947D01*
X1195791Y24024071D01*
X1125983Y23796123D01*
X1095701Y23559654D01*
X500000Y23559654D01*
X500000Y25374000D01*
X520002Y25442121D01*
X573658Y25488614D01*
X626000Y25500000D01*
X47344000Y25500000D01*
X47412121Y25479998D01*
G37*
G04 #@! TD.AperFunction*
M02*
